# xmcd CD database file
#
# Track frame offsets:
#	150
#	23070
#	45125
#	68361
#	88121
#	108613
#	137861
#	162398
#	178148
#	198113
#	221124
#	241272
#	263542
#	293322
#	311947
#	333094
#
# Disc length: 4671 seconds
#
# Revision: 0
# Processed by: cddbd v1.5.1PL0 Copyright (c) Steve Scherf et al.
# Submitted via: CDex 1.51
#
DISCID=d8123d10
DTITLE=Various Artist - Las #1 En Salsa
DYEAR=1900
DGENRE=Salsa
TTITLE0=Dile A Ella
TTITLE1=El Preso
TTITLE2=Cali Pachanguero
TTITLE3=Juliana
TTITLE4=La Vida Es Un Carnaval
TTITLE5=Plastico
TTITLE6=Una Aventura
TTITLE7=Che Che Cole
TTITLE8=Torero
TTITLE9=Sopita En Botella
TTITLE10=No Hay Cama Pa Tanta Gente
TTITLE11=Lluvia
TTITLE12=Periodico De Ayer
TTITLE13=Azuquinta Pal Cafe
TTITLE14=Ana Caona
TTITLE15=Que Le Den Candela
EXTD=
EXTT0=
EXTT1=
EXTT2=
EXTT3=
EXTT4=
EXTT5=
EXTT6=
EXTT7=
EXTT8=
EXTT9=
EXTT10=
EXTT11=
EXTT12=
EXTT13=
EXTT14=
EXTT15=
PLAYORDER=
